<svg class="main-svg" xmlns="http://www.w3.org/2000/svg" xmlns:xlink="http://www.w3.org/1999/xlink" width="1400" height="800" style="" viewBox="0 0 1400 800"><rect x="0" y="0" width="1400" height="800" style="fill: rgb(255, 255, 255); fill-opacity: 1;"/><defs id="defs-072ad3"><g class="clips"/><g class="gradients"/><g class="patterns"/></defs><g class="bglayer"/><g class="layer-below"><g class="imagelayer"/><g class="shapelayer"/></g><g class="cartesianlayer"/><g class="polarlayer"/><g class="smithlayer"/><g class="ternarylayer"/><g class="geolayer"/><g class="funnelarealayer"/><g class="pielayer"/><g class="iciclelayer"/><g class="treemaplayer"/><g class="sunburstlayer"/><g class="glimages"/><g class="sankey" transform="translate(30,60)matrix(1 0 0 1 0 0)" style="box-sizing: content-box; position: absolute; left: 0px; shape-rendering: geometricprecision; pointer-events: none;"><g class="sankey-links" style="fill: none;"><path class="sankey-link" d="M42.8,0C214.4,0 214.4,123.81234567901231 386,123.81234567901231L386,220.10864197530861C214.4,220.10864197530861 214.4,96.29629629629629 42.8,96.29629629629629Z" style="stroke: rgb(68, 68, 68); stroke-opacity: 1; fill: rgb(118, 185, 0); fill-opacity: 0.5; stroke-width: 0; opacity: 1;"/><path class="sankey-link" d="M42.8,96.29629629629629C214.4,96.29629629629629 214.4,371.8419753086422 386,371.8419753086422L386,455.298765432099C214.4,455.298765432099 214.4,179.75308641975306 42.8,179.75308641975306Z" style="stroke: rgb(68, 68, 68); stroke-opacity: 1; fill: rgb(120, 130, 140); fill-opacity: 0.35; stroke-width: 0; opacity: 1;"/><path class="sankey-link" d="M42.8,256.0148148148148C214.4,256.0148148148148 214.4,220.10864197530861 386,220.10864197530861L386,239.36790123456785C214.4,239.36790123456785 214.4,275.27407407407406 42.8,275.27407407407406Z" style="stroke: rgb(68, 68, 68); stroke-opacity: 1; fill: rgb(120, 130, 140); fill-opacity: 0.35; stroke-width: 0; opacity: 1;"/><path class="sankey-link" d="M42.8,275.27407407407406C214.4,275.27407407407406 214.4,455.298765432099 386,455.298765432099L386,478.4098765432101C214.4,478.4098765432101 214.4,298.38518518518515 42.8,298.38518518518515Z" style="stroke: rgb(68, 68, 68); stroke-opacity: 1; fill: rgb(120, 130, 140); fill-opacity: 0.35; stroke-width: 0; opacity: 1;"/><path class="sankey-link" d="M42.8,423.12098765432086C214.4,423.12098765432086 214.4,478.4098765432101 386,478.4098765432101L386,536.1876543209879C214.4,536.1876543209879 214.4,480.8987654320987 42.8,480.8987654320987Z" style="stroke: rgb(68, 68, 68); stroke-opacity: 1; fill: rgb(0, 113, 197); fill-opacity: 0.85; stroke-width: 0; opacity: 1;"/><path class="sankey-link" d="M42.8,416.70123456790117C214.4,416.70123456790117 214.4,239.36790123456788 386,239.36790123456788L386,245.78765432098763C214.4,245.78765432098763 214.4,423.1209876543209 42.8,423.1209876543209Z" style="stroke: rgb(68, 68, 68); stroke-opacity: 1; fill: rgb(0, 113, 197); fill-opacity: 0.5; stroke-width: 0; opacity: 1;"/><path class="sankey-link" d="M42.8,599.4962962962964C214.4,599.4962962962964 214.4,536.1876543209878 386,536.1876543209878L386,551.5950617283952C214.4,551.5950617283952 214.4,614.9037037037037 42.8,614.9037037037037Z" style="stroke: rgb(68, 68, 68); stroke-opacity: 1; fill: rgb(120, 130, 140); fill-opacity: 0.35; stroke-width: 0; opacity: 1;"/><path class="sankey-link" d="M418,123.81234567901231C603,123.81234567901231 603,0 788,0L788,89.87654320987654C603,89.87654320987654 603,213.68888888888887 418,213.68888888888887Z" style="stroke: rgb(68, 68, 68); stroke-opacity: 1; fill: rgb(118, 185, 0); fill-opacity: 0.85; stroke-width: 0; opacity: 1;"/><path class="sankey-link" d="M418,220.10864197530861C603,220.10864197530861 603,608.6419753086416 788,608.6419753086416L788,631.7530864197527C603,631.7530864197527 603,243.2197530864197 418,243.2197530864197Z" style="stroke: rgb(68, 68, 68); stroke-opacity: 1; fill: rgb(237, 28, 36); fill-opacity: 0.4; stroke-width: 0; opacity: 1;"/><path class="sankey-link" d="M418,213.68888888888887C603,213.68888888888887 603,433.23456790123424 788,433.23456790123424L788,439.654320987654C603,439.654320987654 603,220.10864197530861 418,220.10864197530861Z" style="stroke: rgb(68, 68, 68); stroke-opacity: 1; fill: rgb(0, 113, 197); fill-opacity: 0.5; stroke-width: 0; opacity: 1;"/><path class="sankey-link" d="M418,371.8419753086422C603,371.8419753086422 603,198.76543209876542 788,198.76543209876542L788,256.5432098765432C603,256.5432098765432 603,429.61975308642 418,429.61975308642Z" style="stroke: rgb(68, 68, 68); stroke-opacity: 1; fill: rgb(90, 90, 90); fill-opacity: 0.85; stroke-width: 0; opacity: 1;"/><path class="sankey-link" d="M418,461.71851851851875C603,461.71851851851875 603,439.65432098765393 788,439.65432098765393L788,497.43209876543176C603,497.43209876543176 603,519.4962962962966 418,519.4962962962966Z" style="stroke: rgb(68, 68, 68); stroke-opacity: 1; fill: rgb(0, 113, 197); fill-opacity: 0.85; stroke-width: 0; opacity: 1;"/><path class="sankey-link" d="M418,550.3111111111114C603,550.3111111111114 603,631.7530864197527 788,631.7530864197527L788,659.9999999999995C603,659.9999999999995 603,578.5580246913582 418,578.5580246913582Z" style="stroke: rgb(68, 68, 68); stroke-opacity: 1; fill: rgb(237, 28, 36); fill-opacity: 0.4; stroke-width: 0; opacity: 1;"/><path class="sankey-link" d="M418,429.61975308641996C603,429.61975308641996 603,348.7407407407406 788,348.7407407407406L788,380.8395061728393C603,380.8395061728393 603,461.7185185185187 418,461.7185185185187Z" style="stroke: rgb(68, 68, 68); stroke-opacity: 1; fill: rgb(120, 130, 140); fill-opacity: 0.35; stroke-width: 0; opacity: 1;"/><path class="sankey-link" d="M418,519.4962962962966C603,519.4962962962966 603,525.4320987654316 788,525.4320987654316L788,556.2469135802464C603,556.2469135802464 603,550.3111111111114 418,550.3111111111114Z" style="stroke: rgb(68, 68, 68); stroke-opacity: 1; fill: rgb(120, 130, 140); fill-opacity: 0.35; stroke-width: 0; opacity: 1;"/><path class="sankey-link" d="M820,0C1038.5,0 1038.5,0 1257,0L1257,147.6543209876543C1038.5,147.6543209876543 1038.5,147.6543209876543 820,147.6543209876543Z" style="stroke: rgb(68, 68, 68); stroke-opacity: 1; fill: rgb(118, 185, 0); fill-opacity: 0.85; stroke-width: 0; opacity: 1;"/><path class="sankey-link" d="M820,147.6543209876543C1038.5,147.6543209876543 1038.5,393.679012345679 1257,393.679012345679L1257,406.5185185185185C1038.5,406.5185185185185 1038.5,160.4938271604938 820,160.4938271604938Z" style="stroke: rgb(68, 68, 68); stroke-opacity: 1; fill: rgb(118, 185, 0); fill-opacity: 0.5; stroke-width: 0; opacity: 1;"/><path class="sankey-link" d="M820,160.49382716049382C1038.5,160.49382716049382 1038.5,529.5308641975308 1257,529.5308641975308L1257,539.8024691358024C1038.5,539.8024691358024 1038.5,170.76543209876542 820,170.76543209876542Z" style="stroke: rgb(68, 68, 68); stroke-opacity: 1; fill: rgb(118, 185, 0); fill-opacity: 0.5; stroke-width: 0; opacity: 1;"/><path class="sankey-link" d="M820,269.3827160493827C1038.5,269.3827160493827 1038.5,406.5185185185185 1257,406.5185185185185L1257,447.60493827160485C1038.5,447.60493827160485 1038.5,310.46913580246905 820,310.46913580246905Z" style="stroke: rgb(68, 68, 68); stroke-opacity: 1; fill: rgb(90, 90, 90); fill-opacity: 0.85; stroke-width: 0; opacity: 1;"/><path class="sankey-link" d="M820,198.76543209876542C1038.5,198.76543209876542 1038.5,250.12345679012347 1257,250.12345679012347L1257,320.74074074074076C1038.5,320.74074074074076 1038.5,269.3827160493827 820,269.3827160493827Z" style="stroke: rgb(68, 68, 68); stroke-opacity: 1; fill: rgb(90, 90, 90); fill-opacity: 0.85; stroke-width: 0; opacity: 1;"/><path class="sankey-link" d="M820,310.4691358024691C1038.5,310.4691358024691 1038.5,601.1407407407407 1257,601.1407407407407L1257,611.4123456790123C1038.5,611.4123456790123 1038.5,320.7407407407407 820,320.7407407407407Z" style="stroke: rgb(68, 68, 68); stroke-opacity: 1; fill: rgb(90, 90, 90); fill-opacity: 0.5; stroke-width: 0; opacity: 1;"/><path class="sankey-link" d="M820,348.7407407407406C1038.5,348.7407407407406 1038.5,147.6543209876543 1257,147.6543209876543L1257,188.74074074074073C1038.5,188.74074074074073 1038.5,389.82716049382697 820,389.82716049382697Z" style="stroke: rgb(68, 68, 68); stroke-opacity: 1; fill: rgb(120, 130, 140); fill-opacity: 0.35; stroke-width: 0; opacity: 1;"/><path class="sankey-link" d="M820,389.827160493827C1038.5,389.827160493827 1038.5,611.4123456790123 1257,611.4123456790123L1257,626.8197530864197C1038.5,626.8197530864197 1038.5,405.2345679012344 820,405.2345679012344Z" style="stroke: rgb(68, 68, 68); stroke-opacity: 1; fill: rgb(120, 130, 140); fill-opacity: 0.35; stroke-width: 0; opacity: 1;"/><path class="sankey-link" d="M820,449.9259259259256C1038.5,449.9259259259256 1038.5,447.6049382716049 1257,447.6049382716049L1257,486.1234567901234C1038.5,486.1234567901234 1038.5,488.44444444444406 820,488.44444444444406Z" style="stroke: rgb(68, 68, 68); stroke-opacity: 1; fill: rgb(0, 113, 197); fill-opacity: 0.85; stroke-width: 0; opacity: 1;"/><path class="sankey-link" d="M820,433.23456790123424C1038.5,433.23456790123424 1038.5,188.7407407407407 1257,188.7407407407407L1257,205.43209876543204C1038.5,205.43209876543204 1038.5,449.9259259259256 820,449.9259259259256Z" style="stroke: rgb(68, 68, 68); stroke-opacity: 1; fill: rgb(0, 113, 197); fill-opacity: 0.85; stroke-width: 0; opacity: 1;"/><path class="sankey-link" d="M820,488.4444444444441C1038.5,488.4444444444441 1038.5,626.8197530864197 1257,626.8197530864197L1257,634.5234567901234C1038.5,634.5234567901234 1038.5,496.1481481481478 820,496.1481481481478Z" style="stroke: rgb(68, 68, 68); stroke-opacity: 1; fill: rgb(0, 113, 197); fill-opacity: 0.5; stroke-width: 0; opacity: 1;"/><path class="sankey-link" d="M820,525.4320987654316C1038.5,525.4320987654316 1038.5,320.74074074074076 1257,320.74074074074076L1257,365.679012345679C1038.5,365.679012345679 1038.5,570.37037037037 820,570.37037037037Z" style="stroke: rgb(68, 68, 68); stroke-opacity: 1; fill: rgb(120, 130, 140); fill-opacity: 0.35; stroke-width: 0; opacity: 1;"/><path class="sankey-link" d="M820,570.3703703703699C1038.5,570.3703703703699 1038.5,539.8024691358024 1257,539.8024691358024L1257,550.074074074074C1038.5,550.074074074074 1038.5,580.6419753086415 820,580.6419753086415Z" style="stroke: rgb(68, 68, 68); stroke-opacity: 1; fill: rgb(120, 130, 140); fill-opacity: 0.35; stroke-width: 0; opacity: 1;"/><path class="sankey-link" d="M820,608.6419753086416C1038.5,608.6419753086416 1038.5,205.43209876543207 1257,205.43209876543207L1257,222.1234567901234C1038.5,222.1234567901234 1038.5,625.333333333333 820,625.333333333333Z" style="stroke: rgb(68, 68, 68); stroke-opacity: 1; fill: rgb(237, 28, 36); fill-opacity: 0.4; stroke-width: 0; opacity: 1;"/><path class="sankey-link" d="M820,625.3333333333329C1038.5,625.3333333333329 1038.5,486.12345679012344 1257,486.12345679012344L1257,501.53086419753083C1038.5,501.53086419753083 1038.5,640.7407407407403 820,640.7407407407403Z" style="stroke: rgb(68, 68, 68); stroke-opacity: 1; fill: rgb(237, 28, 36); fill-opacity: 0.4; stroke-width: 0; opacity: 1;"/><path class="sankey-link" d="M820,640.7407407407403C1038.5,640.7407407407403 1038.5,634.5234567901234 1257,634.5234567901234L1257,639.6592592592592C1038.5,639.6592592592592 1038.5,645.8765432098761 820,645.8765432098761Z" style="stroke: rgb(68, 68, 68); stroke-opacity: 1; fill: rgb(237, 28, 36); fill-opacity: 0.4; stroke-width: 0; opacity: 1;"/></g><g class="sankey-node-set" style="cursor: move;"><g class="sankey-node" transform="translate(10.800,0.000)" style="opacity: 1;"><rect class="node-rect" width="31.999999999999996" height="179.75308641975298" style="stroke-width: 2; stroke: rgb(255, 255, 255); stroke-opacity: 1; fill: rgb(180, 50, 50); fill-opacity: 0.8;"/><text class="node-label" data-notex="1" x="0" y="0" text-anchor="start" transform="translate(36,86.57654320987649)" style="cursor: default; font-family: Arial; font-size: 11px; fill: rgb(42, 63, 95); fill-opacity: 1; text-shadow: rgb(255, 255, 255) 1px 1px 1px, rgb(255, 255, 255) -1px -1px 1px, rgb(255, 255, 255) 1px -1px 1px, rgb(255, 255, 255) -1px 1px 1px; white-space: pre;"><tspan class="line" dy="0em" x="0" y="0">TSMC</tspan><tspan class="line" dy="1.3em" x="0" y="0">34% · $85B</tspan></text></g><g class="sankey-node" transform="translate(10.800,256.015)" style="opacity: 1;"><rect class="node-rect" width="31.999999999999996" height="42.370370370370324" style="stroke-width: 2; stroke: rgb(255, 255, 255); stroke-opacity: 1; fill: rgb(20, 40, 160); fill-opacity: 0.7;"/><text class="node-label" data-notex="1" x="0" y="0" text-anchor="start" transform="translate(36,17.88518518518516)" style="cursor: default; font-family: Arial; font-size: 11px; fill: rgb(42, 63, 95); fill-opacity: 1; text-shadow: rgb(255, 255, 255) 1px 1px 1px, rgb(255, 255, 255) -1px -1px 1px, rgb(255, 255, 255) 1px -1px 1px, rgb(255, 255, 255) -1px 1px 1px; white-space: pre;"><tspan class="line" dy="0em" x="0" y="0">Samsung</tspan><tspan class="line" dy="1.3em" x="0" y="0">11% · $28B</tspan></text></g><g class="sankey-node" transform="translate(10.800,416.701)" style="opacity: 1;"><rect class="node-rect" width="31.999999999999996" height="64.19753086419769" style="stroke-width: 2; stroke: rgb(255, 255, 255); stroke-opacity: 1; fill: rgb(0, 113, 197); fill-opacity: 0.85;"/><text class="node-label" data-notex="1" x="0" y="0" text-anchor="start" transform="translate(36,28.798765432098843)" style="cursor: default; font-family: Arial; font-size: 11px; fill: rgb(42, 63, 95); fill-opacity: 1; text-shadow: rgb(255, 255, 255) 1px 1px 1px, rgb(255, 255, 255) -1px -1px 1px, rgb(255, 255, 255) 1px -1px 1px, rgb(255, 255, 255) -1px 1px 1px; white-space: pre;"><tspan class="line" dy="0em" x="0" y="0">Intel Foundry</tspan><tspan class="line" dy="1.3em" x="0" y="0">$17.5B</tspan></text></g><g class="sankey-node" transform="translate(10.800,599.496)" style="opacity: 1;"><rect class="node-rect" width="31.999999999999996" height="15.40740740740739" style="stroke-width: 2; stroke: rgb(255, 255, 255); stroke-opacity: 1; fill: rgb(120, 130, 140); fill-opacity: 0.6;"/><text class="node-label" data-notex="1" x="0" y="0" text-anchor="start" transform="translate(36,4.403703703703695)" style="cursor: default; font-family: Arial; font-size: 11px; fill: rgb(42, 63, 95); fill-opacity: 1; text-shadow: rgb(255, 255, 255) 1px 1px 1px, rgb(255, 255, 255) -1px -1px 1px, rgb(255, 255, 255) 1px -1px 1px, rgb(255, 255, 255) -1px 1px 1px; white-space: pre;"><tspan class="line" dy="0em" x="0" y="0">GlobalFoundries</tspan><tspan class="line" dy="1.3em" x="0" y="0">6% · $15B</tspan></text></g><g class="sankey-node" transform="translate(386.000,123.812)" style="opacity: 1;"><rect class="node-rect" width="32" height="121.9753086419754" style="stroke-width: 2; stroke: rgb(255, 255, 255); stroke-opacity: 1; fill: rgb(118, 185, 0); fill-opacity: 0.85;"/><text class="node-label" data-notex="1" x="0" y="0" text-anchor="start" transform="translate(36,64.8376543209877)" style="cursor: default; font-family: Arial; font-size: 11px; fill: rgb(42, 63, 95); fill-opacity: 1; text-shadow: rgb(255, 255, 255) 1px 1px 1px, rgb(255, 255, 255) -1px -1px 1px, rgb(255, 255, 255) 1px -1px 1px, rgb(255, 255, 255) -1px 1px 1px; white-space: pre;">GPU</text></g><g class="sankey-node" transform="translate(386.000,371.842)" style="opacity: 1;"><rect class="node-rect" width="32" height="206.7160493827156" style="stroke-width: 2; stroke: rgb(255, 255, 255); stroke-opacity: 1; fill: rgb(0, 113, 197); fill-opacity: 0.5;"/><text class="node-label" data-notex="1" x="0" y="0" text-anchor="start" transform="translate(36,107.20802469135779)" style="cursor: default; font-family: Arial; font-size: 11px; fill: rgb(42, 63, 95); fill-opacity: 1; text-shadow: rgb(255, 255, 255) 1px 1px 1px, rgb(255, 255, 255) -1px -1px 1px, rgb(255, 255, 255) 1px -1px 1px, rgb(255, 255, 255) -1px 1px 1px; white-space: pre;">CPU</text></g><g class="sankey-node" transform="translate(788.000,0.000)" style="opacity: 1;"><rect class="node-rect" width="32" height="170.76543209876542" style="stroke-width: 2; stroke: rgb(255, 255, 255); stroke-opacity: 1; fill: rgb(118, 185, 0); fill-opacity: 0.85;"/><text class="node-label" data-notex="1" x="0" y="0" text-anchor="start" transform="translate(36,82.08271604938271)" style="cursor: default; font-family: Arial; font-size: 11px; fill: rgb(42, 63, 95); fill-opacity: 1; text-shadow: rgb(255, 255, 255) 1px 1px 1px, rgb(255, 255, 255) -1px -1px 1px, rgb(255, 255, 255) 1px -1px 1px, rgb(255, 255, 255) -1px 1px 1px; white-space: pre;"><tspan class="line" dy="0em" x="0" y="0">Nvidia</tspan><tspan class="line" dy="1.3em" x="0" y="0">$130B Rev</tspan></text></g><g class="sankey-node" transform="translate(788.000,198.765)" style="opacity: 1;"><rect class="node-rect" width="32" height="121.97530864197518" style="stroke-width: 2; stroke: rgb(255, 255, 255); stroke-opacity: 1; fill: rgb(90, 90, 90); fill-opacity: 0.85;"/><text class="node-label" data-notex="1" x="0" y="0" text-anchor="start" transform="translate(36,57.68765432098759)" style="cursor: default; font-family: Arial; font-size: 11px; fill: rgb(42, 63, 95); fill-opacity: 1; text-shadow: rgb(255, 255, 255) 1px 1px 1px, rgb(255, 255, 255) -1px -1px 1px, rgb(255, 255, 255) 1px -1px 1px, rgb(255, 255, 255) -1px 1px 1px; white-space: pre;"><tspan class="line" dy="0em" x="0" y="0">Apple</tspan><tspan class="line" dy="1.3em" x="0" y="0">$95B Silicon</tspan></text></g><g class="sankey-node" transform="translate(788.000,348.741)" style="opacity: 1;"><rect class="node-rect" width="32" height="56.49382716049365" style="stroke-width: 2; stroke: rgb(255, 255, 255); stroke-opacity: 1; fill: rgb(120, 130, 140); fill-opacity: 0.6;"/><text class="node-label" data-notex="1" x="0" y="0" text-anchor="start" transform="translate(36,24.946913580246825)" style="cursor: default; font-family: Arial; font-size: 11px; fill: rgb(42, 63, 95); fill-opacity: 1; text-shadow: rgb(255, 255, 255) 1px 1px 1px, rgb(255, 255, 255) -1px -1px 1px, rgb(255, 255, 255) 1px -1px 1px, rgb(255, 255, 255) -1px 1px 1px; white-space: pre;"><tspan class="line" dy="0em" x="0" y="0">Broadcom</tspan><tspan class="line" dy="1.3em" x="0" y="0">$50B Rev</tspan></text></g><g class="sankey-node" transform="translate(788.000,433.235)" style="opacity: 1;"><rect class="node-rect" width="32" height="64.19753086419746" style="stroke-width: 2; stroke: rgb(255, 255, 255); stroke-opacity: 1; fill: rgb(0, 113, 197); fill-opacity: 0.85;"/><text class="node-label" data-notex="1" x="0" y="0" text-anchor="start" transform="translate(36,28.79876543209873)" style="cursor: default; font-family: Arial; font-size: 11px; fill: rgb(42, 63, 95); fill-opacity: 1; text-shadow: rgb(255, 255, 255) 1px 1px 1px, rgb(255, 255, 255) -1px -1px 1px, rgb(255, 255, 255) 1px -1px 1px, rgb(255, 255, 255) -1px 1px 1px; white-space: pre;"><tspan class="line" dy="0em" x="0" y="0">Intel Products</tspan><tspan class="line" dy="1.3em" x="0" y="0">$49B Rev</tspan></text></g><g class="sankey-node" transform="translate(788.000,525.432)" style="opacity: 1;"><rect class="node-rect" width="32" height="55.20987654320993" style="stroke-width: 2; stroke: rgb(255, 255, 255); stroke-opacity: 1; fill: rgb(120, 130, 140); fill-opacity: 0.6;"/><text class="node-label" data-notex="1" x="0" y="0" text-anchor="start" transform="translate(36,24.304938271604964)" style="cursor: default; font-family: Arial; font-size: 11px; fill: rgb(42, 63, 95); fill-opacity: 1; text-shadow: rgb(255, 255, 255) 1px 1px 1px, rgb(255, 255, 255) -1px -1px 1px, rgb(255, 255, 255) 1px -1px 1px, rgb(255, 255, 255) -1px 1px 1px; white-space: pre;"><tspan class="line" dy="0em" x="0" y="0">Qualcomm</tspan><tspan class="line" dy="1.3em" x="0" y="0">$40B Rev</tspan></text></g><g class="sankey-node" transform="translate(788.000,608.642)" style="opacity: 1;"><rect class="node-rect" width="32" height="51.35802469135797" style="stroke-width: 2; stroke: rgb(255, 255, 255); stroke-opacity: 1; fill: rgb(237, 28, 36); fill-opacity: 0.75;"/><text class="node-label" data-notex="1" x="0" y="0" text-anchor="start" transform="translate(36,22.379012345678984)" style="cursor: default; font-family: Arial; font-size: 11px; fill: rgb(42, 63, 95); fill-opacity: 1; text-shadow: rgb(255, 255, 255) 1px 1px 1px, rgb(255, 255, 255) -1px -1px 1px, rgb(255, 255, 255) 1px -1px 1px, rgb(255, 255, 255) -1px 1px 1px; white-space: pre;"><tspan class="line" dy="0em" x="0" y="0">AMD</tspan><tspan class="line" dy="1.3em" x="0" y="0">$26B Rev</tspan></text></g><g class="sankey-node" transform="translate(1257.000,0.000)" style="opacity: 1;"><rect class="node-rect" width="32" height="222.12345679012347" style="stroke-width: 2; stroke: rgb(255, 255, 255); stroke-opacity: 1; fill: rgb(74, 85, 104); fill-opacity: 0.8;"/><text class="node-label" data-notex="1" x="0" y="0" text-anchor="end" transform="translate(-4,107.76172839506174)" style="cursor: default; font-family: Arial; font-size: 11px; fill: rgb(42, 63, 95); fill-opacity: 1; text-shadow: rgb(255, 255, 255) 1px 1px 1px, rgb(255, 255, 255) -1px -1px 1px, rgb(255, 255, 255) 1px -1px 1px, rgb(255, 255, 255) -1px 1px 1px; white-space: pre;"><tspan class="line" dy="0em" x="0" y="0">Data Center</tspan><tspan class="line" dy="1.3em" x="0" y="0">$150B TAM</tspan></text></g><g class="sankey-node" transform="translate(1257.000,250.123)" style="opacity: 1;"><rect class="node-rect" width="32" height="115.55555555555551" style="stroke-width: 2; stroke: rgb(255, 255, 255); stroke-opacity: 1; fill: rgb(120, 130, 140); fill-opacity: 0.6;"/><text class="node-label" data-notex="1" x="0" y="0" text-anchor="end" transform="translate(-4,54.47777777777776)" style="cursor: default; font-family: Arial; font-size: 11px; fill: rgb(42, 63, 95); fill-opacity: 1; text-shadow: rgb(255, 255, 255) 1px 1px 1px, rgb(255, 255, 255) -1px -1px 1px, rgb(255, 255, 255) 1px -1px 1px, rgb(255, 255, 255) -1px 1px 1px; white-space: pre;"><tspan class="line" dy="0em" x="0" y="0">Mobile</tspan><tspan class="line" dy="1.3em" x="0" y="0">$120B TAM</tspan></text></g><g class="sankey-node" transform="translate(1257.000,393.679)" style="opacity: 1;"><rect class="node-rect" width="32" height="107.85185185185185" style="stroke-width: 2; stroke: rgb(255, 255, 255); stroke-opacity: 1; fill: rgb(0, 113, 197); fill-opacity: 0.5;"/><text class="node-label" data-notex="1" x="0" y="0" text-anchor="end" transform="translate(-4,50.62592592592593)" style="cursor: default; font-family: Arial; font-size: 11px; fill: rgb(42, 63, 95); fill-opacity: 1; text-shadow: rgb(255, 255, 255) 1px 1px 1px, rgb(255, 255, 255) -1px -1px 1px, rgb(255, 255, 255) 1px -1px 1px, rgb(255, 255, 255) -1px 1px 1px; white-space: pre;"><tspan class="line" dy="0em" x="0" y="0">PC / Client</tspan><tspan class="line" dy="1.3em" x="0" y="0">$80B TAM</tspan></text></g><g class="sankey-node" transform="translate(1257.000,529.531)" style="opacity: 1;"><rect class="node-rect" width="32" height="20.543209876543415" style="stroke-width: 2; stroke: rgb(255, 255, 255); stroke-opacity: 1; fill: rgb(120, 130, 140); fill-opacity: 0.6;"/><text class="node-label" data-notex="1" x="0" y="0" text-anchor="end" transform="translate(-4,6.971604938271707)" style="cursor: default; font-family: Arial; font-size: 11px; fill: rgb(42, 63, 95); fill-opacity: 1; text-shadow: rgb(255, 255, 255) 1px 1px 1px, rgb(255, 255, 255) -1px -1px 1px, rgb(255, 255, 255) 1px -1px 1px, rgb(255, 255, 255) -1px 1px 1px; white-space: pre;"><tspan class="line" dy="0em" x="0" y="0">Automotive</tspan><tspan class="line" dy="1.3em" x="0" y="0">$50B TAM</tspan></text></g><g class="sankey-node" transform="translate(1257.000,601.141)" style="opacity: 1;"><rect class="node-rect" width="32" height="38.518518518518476" style="stroke-width: 2; stroke: rgb(255, 255, 255); stroke-opacity: 1; fill: rgb(120, 130, 140); fill-opacity: 0.6;"/><text class="node-label" data-notex="1" x="0" y="0" text-anchor="end" transform="translate(-4,15.959259259259237)" style="cursor: default; font-family: Arial; font-size: 11px; fill: rgb(42, 63, 95); fill-opacity: 1; text-shadow: rgb(255, 255, 255) 1px 1px 1px, rgb(255, 255, 255) -1px -1px 1px, rgb(255, 255, 255) 1px -1px 1px, rgb(255, 255, 255) -1px 1px 1px; white-space: pre;"><tspan class="line" dy="0em" x="0" y="0">IoT / Edge</tspan><tspan class="line" dy="1.3em" x="0" y="0">$40B TAM</tspan></text></g></g></g><defs id="topdefs-072ad3"><g class="clips"/></defs><g class="layer-above"><g class="imagelayer"/><g class="shapelayer"/></g><g class="infolayer"><g class="g-gtitle"/><g class="first-render"/><g class="annotation" data-index="0" style="opacity: 1;"><g class="annotation-text-g" transform="rotate(0,43.4,24.699999999999957)"><g class="cursor-pointer" transform="translate(7,7)"><rect class="bg" x="0.5" y="0.5" width="71" height="34" style="stroke-width: 1px; stroke: rgb(0, 0, 0); stroke-opacity: 0; fill: rgb(0, 0, 0); fill-opacity: 0;"/><text class="annotation-text" text-anchor="middle" x="36.0546875" y="14" style="font-family: Arial; font-size: 13px; fill: rgb(42, 63, 95); fill-opacity: 1; white-space: pre;"><tspan class="line" dy="0em" x="36.0546875" y="14"><tspan style="font-weight:bold">Foundries</tspan></tspan><tspan class="line" dy="1.3em" x="36.0546875" y="14"><tspan style="font-size:10px; fill:#666">~$250B Market</tspan></tspan></text></g></g></g><g class="annotation" data-index="1" style="opacity: 1;"><g class="annotation-text-g" transform="rotate(0,405.20000000000005,16.699999999999953)"><g class="cursor-pointer" transform="translate(362,7)"><rect class="bg" x="0.5" y="0.5" width="85" height="18" style="stroke-width: 1px; stroke: rgb(0, 0, 0); stroke-opacity: 0; fill: rgb(0, 0, 0); fill-opacity: 0;"/><text class="annotation-text" text-anchor="middle" x="43.0546875" y="14" style="font-family: Arial; font-size: 13px; fill: rgb(42, 63, 95); fill-opacity: 1; white-space: pre;"><tspan style="font-weight:bold">Product Type</tspan></text></g></g></g><g class="annotation" data-index="2" style="opacity: 1;"><g class="annotation-text-g" transform="rotate(0,780.4000000000001,16.699999999999957)"><g class="cursor-pointer" transform="translate(731,7)"><rect class="bg" x="0.5" y="0.5" width="98" height="18" style="stroke-width: 1px; stroke: rgb(0, 0, 0); stroke-opacity: 0; fill: rgb(0, 0, 0); fill-opacity: 0;"/><text class="annotation-text" text-anchor="middle" x="49.6796875" y="14" style="font-family: Arial; font-size: 13px; fill: rgb(42, 63, 95); fill-opacity: 1; white-space: pre;"><tspan style="font-weight:bold">Chip Designers</tspan></text></g></g></g><g class="annotation" data-index="3" style="opacity: 1;"><g class="annotation-text-g" transform="rotate(0,1209.2,16.699999999999953)"><g class="cursor-pointer" transform="translate(1169,7)"><rect class="bg" x="0.5" y="0.5" width="80" height="18" style="stroke-width: 1px; stroke: rgb(0, 0, 0); stroke-opacity: 0; fill: rgb(0, 0, 0); fill-opacity: 0;"/><text class="annotation-text" text-anchor="middle" x="40.65625" y="14" style="font-family: Arial; font-size: 13px; fill: rgb(42, 63, 95); fill-opacity: 1; white-space: pre;"><tspan style="font-weight:bold">End Markets</tspan></text></g></g></g><g class="annotation" data-index="4" style="opacity: 1;"><g class="annotation-text-g" transform="rotate(0,700,763.8000000000001)"><g class="cursor-pointer" transform="translate(501,755)"><rect class="bg" x="0.5" y="0.5" width="398" height="17" style="stroke-width: 1px; stroke: rgb(0, 0, 0); stroke-opacity: 0; fill: rgb(0, 0, 0); fill-opacity: 0;"/><text class="annotation-text" text-anchor="middle" x="199.28125" y="13" style="font-family: Arial; font-size: 12px; fill: rgb(51, 51, 51); fill-opacity: 1; white-space: pre;"><tspan style=" fill:#0071C5;font-weight:bold">■ INTEL</tspan> (IDM)  |  <tspan style=" fill:#76B900;font-weight:bold">■ NVIDIA</tspan>  |  <tspan style=" fill:#5A5A5A;font-weight:bold">■ APPLE</tspan>  |  <tspan style=" fill:#ED1C24;font-weight:bold">■ AMD</tspan>  |  <tspan style=" fill:#787878">■ Others</tspan> (all fabless)</text></g></g></g></g></svg>